PathFileType	4	(X/Y/Z)	C:\Users\Basilio\Documents\Thesis Gigler\squatting_fais\c3dfiles\039\SJ_pre2\markers_experimental.trc
DataRate	CameraRate	NumFrames	NumMarkers	Units	OrigDataRate	OrigDataStartFrame	OrigNumFrames
200.000000	200.000000	4	61	mm	200.000000	216	1732
Frame#	Time	FHD			LBHD			RBHD			C7			T10			CLAV			LSHO			LUUPA			LMUPA			LDUPA			LLEP			LMEP			LRAD			LUL			LRFIN			RSHO			RUPA1			RMUPA			RDUPA			RLEP			RMEP			RRAD			RUL			RUFIN			LASI			RASI			USACR			LSACR			RSACR			LTHI1			LTHI2			LTHI3			LTHI4			LLFC			LMFC			LTIB1			LTIB2			LTIB3			LTIB4			LLMAL			LMMAL			LHEE			LMT1			LMT2			LMT5			RTHI			RTHI2			RTHI3			RTHI4			RLFC			RMFC			RTIB1			RTIB2			RTIB3			RTIB4			RLMAL			RMMAL			RHEE			RMT1			RMT2			RMT5			
		X1	Y1	Z1	X2	Y2	Z2	X3	Y3	Z3	X4	Y4	Z4	X5	Y5	Z5	X6	Y6	Z6	X7	Y7	Z7	X8	Y8	Z8	X9	Y9	Z9	X10	Y10	Z10	X11	Y11	Z11	X12	Y12	Z12	X13	Y13	Z13	X14	Y14	Z14	X15	Y15	Z15	X16	Y16	Z16	X17	Y17	Z17	X18	Y18	Z18	X19	Y19	Z19	X20	Y20	Z20	X21	Y21	Z21	X22	Y22	Z22	X23	Y23	Z23	X24	Y24	Z24	X25	Y25	Z25	X26	Y26	Z26	X27	Y27	Z27	X28	Y28	Z28	X29	Y29	Z29	X30	Y30	Z30	X31	Y31	Z31	X32	Y32	Z32	X33	Y33	Z33	X34	Y34	Z34	X35	Y35	Z35	X36	Y36	Z36	X37	Y37	Z37	X38	Y38	Z38	X39	Y39	Z39	X40	Y40	Z40	X41	Y41	Z41	X42	Y42	Z42	X43	Y43	Z43	X44	Y44	Z44	X45	Y45	Z45	X46	Y46	Z46	X47	Y47	Z47	X48	Y48	Z48	X49	Y49	Z49	X50	Y50	Z50	X51	Y51	Z51	X52	Y52	Z52	X53	Y53	Z53	X54	Y54	Z54	X55	Y55	Z55	X56	Y56	Z56	X57	Y57	Z57	X58	Y58	Z58	X59	Y59	Z59	X60	Y60	Z60	X61	Y61	Z61	

217	1.08	-189.0908355712891	1759.829345703125	-835.9884033203127	-334.9087524414063	1699.3154296875	-959.4689941406252	-313.6114501953126	1711.895874023438	-820.3982543945315	-361.3026733398438	1561.3876953125	-898.7581176757815	-389.8671875000001	1244.249389648438	-903.266784667969	-222.7352294921876	1482.043334960938	-897.894226074219	-278.1106872558594	1534.608032226563	-1086.702026367188	-376.7458801269532	1406.687133789063	-1246.954833984375	-341.3844604492188	1371.3125	-1251.840087890625	-383.2512512207032	1353.143920898438	-1291.904052734375	-382.7136840820313	1288.114990234375	-1322.737182617188	-458.498992919922	1272.753784179688	-1277.286010742188	-364.9225769042969	1055.611206054688	-1145.12890625	-317.0977478027344	1035.0107421875	-1201.120483398438	-312.1607055664063	1057.828979492188	-1096.238403320313	-260.1253356933594	1526.885375976563	-705.3702392578126	-385.333465576172	1417.575927734375	-556.8693237304689	-355.9847717285157	1379.479858398438	-541.8910522460939	-406.205291748047	1368.660278320313	-510.7460937500001	-404.979705810547	1304.603271484375	-478.1444396972657	-479.3886718750001	1291.912963867188	-526.9049682617189	-348.5355529785157	1104.4013671875	-690.1791381835939	-337.9967956542969	1055.660400390625	-632.0767822265626	-291.6164550781251	1079.67724609375	-734.2923583984376	-236.0260314941407	1043.213256835938	-1018.191711425781	-235.4877319335938	1027.239013671875	-801.0659179687502	-412.3944702148439	1119.798706054688	-901.956237792969	-420.7971191406251	1090.38232421875	-931.5381469726565	-423.4260864257814	1089.521728515625	-872.8251953125002	-292.1347045898438	778.0574340820315	-1112.34033203125	-251.2378540039063	704.4192504882814	-1122.0107421875	-203.2814636230469	712.2000732421876	-1115.704467773438	-269.7045898437501	647.5025634765626	-1108.9033203125	-256.3236694335938	528.7910156250001	-1114.397705078125	-215.7341613769532	498.8796386718751	-1004.120666503906	-206.4613494873047	378.0198364257813	-1102.6796875	-281.7854919433594	346.2396850585938	-1140.249633789063	-241.3005676269532	337.7947998046876	-1126.10986328125	-246.5818481445313	256.4872741699219	-1090.192138671875	-331.7204895019532	99.46584320068362	-1123.473388671875	-305.6866760253907	94.14700317382814	-1039.781860351563	-397.4978332519532	41.11676025390626	-1081.343872070313	-162.54296875	56.33131790161134	-1094.712768554688	-173.6179504394532	55.2856788635254	-1136.822265625	-224.1481018066407	31.37664413452149	-1182.718994140625	-275.1246643066407	776.842712402344	-705.8734130859376	-226.8230590820313	731.1617431640626	-695.9144897460939	-195.4631958007813	739.5594482421876	-701.4744873046876	-238.8057556152344	646.2938842773439	-698.9011840820314	-247.3782348632813	507.337860107422	-712.0045776367189	-201.4482421875001	490.9113159179689	-819.812683105469	-223.909408569336	298.4180297851563	-709.4641723632814	-314.4979248046876	240.7366027832032	-701.3273315429689	-269.2744445800782	229.032943725586	-698.5910034179689	-253.2005920410157	176.4037628173828	-723.5493164062501	-327.4384765625001	91.68288421630861	-699.5216064453126	-291.7756958007813	98.95810699462893	-783.0349731445315	-391.4407653808595	40.4040870666504	-749.5482788085939	-157.4849243164063	51.85230255126955	-729.8614501953126	-167.0056304931641	57.78549194335939	-684.2905883789064	-223.6952514648438	30.48399734497071	-637.0639038085939	
218	1.085	-189.0933074951172	1759.784301757813	-835.9917602539065	-334.9423217773438	1699.331787109375	-959.4763793945315	-313.5758361816407	1711.937866210938	-820.4088134765627	-361.3186340332032	1561.365356445313	-898.8045654296877	-389.9419860839845	1244.17578125	-903.310729980469	-222.8045501708985	1482.134521484375	-897.923034667969	-278.1536865234376	1534.579833984375	-1086.744262695313	-376.6614990234376	1406.662353515625	-1246.998168945313	-341.3584594726563	1371.228515625	-1251.8408203125	-383.2238159179688	1353.14306640625	-1291.906860351563	-382.5848083496094	1288.08642578125	-1322.811401367188	-458.3932189941407	1272.69482421875	-1277.341430664063	-364.8384399414063	1055.58642578125	-1145.1015625	-317.0365295410157	1035.096801757813	-1201.11572265625	-312.1516113281251	1057.849609375	-1096.243530273438	-260.2419433593751	1526.89453125	-705.3813476562501	-385.4007568359376	1417.635498046875	-556.8724975585939	-356.0280456542969	1379.568359375	-541.9085693359376	-406.3059387207032	1368.691284179688	-510.8212890625001	-405.0092163085939	1304.613037109375	-478.1699829101564	-479.4426879882814	1291.8984375	-526.9169311523439	-348.6040039062501	1104.457275390625	-690.1898803710939	-338.0027160644532	1055.694458007813	-632.1423950195314	-291.6245117187501	1079.675537109375	-734.2691040039064	-236.0548095703126	1043.19091796875	-1018.120666503906	-235.5115203857422	1027.20849609375	-801.0440673828127	-412.3348083496095	1120.103759765625	-902.049011230469	-420.8308715820314	1090.380859375	-931.584167480469	-423.4903259277345	1089.49951171875	-872.8452148437502	-292.0497436523438	778.0603027343752	-1112.35009765625	-251.1961364746094	704.3563232421876	-1121.981201171875	-203.270492553711	712.2116088867189	-1115.728637695313	-269.6688537597657	647.5007324218751	-1108.86572265625	-256.3211669921876	528.8055419921876	-1114.41748046875	-215.7253875732422	498.8585205078126	-1004.094787597656	-206.4347686767579	378.0190734863282	-1102.640502929688	-281.8127441406251	346.2801513671876	-1140.265014648438	-241.3182830810547	337.7589111328126	-1126.128784179688	-246.5414123535157	256.4452209472657	-1090.143432617188	-331.6688842773438	99.44245147705081	-1123.483276367188	-305.6432800292969	94.11889648437501	-1039.7578125	-397.5164489746095	41.16486358642579	-1081.309936523438	-162.560791015625	56.30642318725587	-1094.73193359375	-173.6720428466797	55.29209518432619	-1136.838134765625	-224.1201629638672	31.40346145629884	-1182.718383789063	-275.1282348632813	776.8240356445315	-705.8655395507814	-226.8848266601563	731.1579589843751	-695.9093017578126	-195.4326324462891	739.5602416992189	-701.4230957031251	-238.7906341552735	646.2826538085939	-698.9645996093751	-247.3793640136719	507.3511352539064	-712.0224609375001	-201.4994354248047	490.9221496582032	-819.7969970703127	-223.8980560302735	298.4236145019532	-709.4379272460939	-314.5411071777344	240.7395477294922	-701.3704223632814	-269.2607421875001	229.0640869140626	-698.5781250000001	-253.2530822753907	176.3878479003907	-723.5356445312501	-327.4475402832032	91.70567321777345	-699.5537719726564	-291.7502746582032	98.9743576049805	-783.0296630859377	-391.4678649902345	40.41154479980469	-749.5499267578126	-157.5110015869141	51.83690643310548	-729.8263549804689	-166.9520111083985	57.84004974365236	-684.2763671875001	-223.6993103027344	30.49288558959962	-637.0479736328126	
219	1.09	-188.7957305908203	1759.840087890625	-835.8256835937502	-334.9097290039063	1699.403076171875	-959.5391845703127	-313.6513671875001	1712.051147460938	-820.4717407226565	-361.4855651855469	1561.408325195313	-898.8489990234377	-390.0231323242189	1244.197143554688	-903.3079223632815	-222.7847747802735	1482.16650390625	-897.979919433594	-278.1783752441407	1534.587890625	-1086.707275390625	-376.5436096191407	1406.673828125	-1247.064208984375	-341.2402648925782	1371.260131835938	-1251.90625	-383.1099243164063	1353.125	-1291.9404296875	-382.4417724609376	1288.078735351563	-1322.84912109375	-458.2063903808595	1272.63720703125	-1277.415283203125	-364.8314819335938	1055.610595703125	-1145.153076171875	-316.8896179199219	1035.085693359375	-1201.071411132813	-312.1011352539063	1057.833251953125	-1096.220703125	-260.3240661621094	1527.010864257813	-705.4082641601564	-385.4951171875001	1417.6416015625	-556.8673095703126	-356.0915832519532	1379.559692382813	-541.9251708984376	-406.3967590332032	1368.713623046875	-510.794158935547	-405.074676513672	1304.610229492188	-478.2137145996095	-479.4835510253907	1291.9013671875	-526.9182128906251	-348.6338500976563	1104.465698242188	-690.1837158203126	-338.0712890625001	1055.659423828125	-632.0947875976564	-291.6259155273438	1079.666015625	-734.2678833007814	-235.9885559082032	1043.212890625	-1018.163391113281	-235.5162963867188	1027.201171875	-800.9865722656252	-412.3806457519532	1119.756591796875	-902.0006103515627	-420.8446044921876	1090.385864257813	-931.576843261719	-423.5444335937501	1089.478759765625	-872.8611450195315	-292.0753784179688	778.090026855469	-1112.337158203125	-251.2460327148438	704.4158935546876	-1122.004516601563	-203.2892150878907	712.2375488281251	-1115.697265625	-269.6165771484376	647.4433593750001	-1108.876831054688	-256.3017883300782	528.7873535156251	-1114.39990234375	-215.7225799560547	498.8594665527345	-1004.089904785156	-206.3675537109376	377.9808349609376	-1102.662353515625	-281.7947082519532	346.2219238281251	-1140.22509765625	-241.2684783935547	337.8591308593751	-1126.135498046875	-246.5311431884766	256.4694213867188	-1090.123168945313	-331.7082519531251	99.45290374755862	-1123.4794921875	-305.6678466796876	94.11485290527345	-1039.736450195313	-397.5057678222657	41.15559005737305	-1081.321411132813	-162.5404205322266	56.33083724975587	-1094.672241210938	-173.6863708496094	55.31295013427736	-1136.82177734375	-224.1451721191407	31.38155174255372	-1182.738647460938	-275.0945434570313	776.832946777344	-705.8572998046876	-226.8423461914063	731.2050170898439	-695.8822021484376	-195.4337768554688	739.5753173828126	-701.4144287109376	-238.9761352539063	646.0237426757814	-699.0966186523439	-247.3357238769532	507.3534545898439	-711.9467773437501	-201.4219665527344	490.889617919922	-819.7612304687502	-223.9023742675782	298.4392395019532	-709.4340209960939	-314.5581970214844	240.7339172363282	-701.3298950195314	-269.2884216308594	229.0857086181641	-698.5852661132814	-253.2452087402344	176.3781890869141	-723.5317993164064	-327.4424438476563	91.67858123779298	-699.5452880859376	-291.7335510253907	98.96369171142581	-783.0335693359377	-391.4766540527345	40.38149642944337	-749.5578002929689	-157.5065612792969	51.8549270629883	-729.8325195312501	-167.0096435546875	57.86010742187501	-684.2523193359376	-223.7053680419922	30.49144172668458	-637.0529785156251	
220	1.095	-188.7977905273438	1759.787109375	-835.8034667968752	-334.8278198242188	1699.3759765625	-959.566101074219	-313.6098022460938	1712.117919921875	-820.4711914062502	-361.5744018554688	1561.442993164063	-898.8623657226565	-390.0445861816407	1244.230712890625	-903.3369140625002	-222.7997741699219	1482.19580078125	-897.9748535156252	-278.1799316406251	1534.619506835938	-1086.738159179688	-376.4588012695313	1406.65283203125	-1247.093505859375	-341.2796325683594	1371.227294921875	-1251.903686523438	-383.0289916992188	1353.116943359375	-1291.957763671875	-382.3643188476563	1288.033935546875	-1322.874633789063	-458.1455078125001	1272.610961914063	-1277.473388671875	-364.7233276367188	1055.601440429688	-1145.140747070313	-316.8564758300782	1035.1015625	-1201.1123046875	-312.0884704589844	1057.831665039063	-1096.203125	-260.4485778808594	1527.110595703125	-705.4645996093751	-385.5916442871095	1417.61767578125	-556.9259033203126	-356.1666564941407	1379.603759765625	-541.8795166015626	-406.4813842773439	1368.718994140625	-510.8331604003907	-405.1743469238282	1304.585815429688	-478.1858825683595	-479.5430297851564	1291.892578125	-526.9338989257814	-348.6090393066407	1104.455200195313	-690.1625976562501	-338.0695190429688	1055.702880859375	-632.0810546875001	-291.6751098632813	1079.705078125	-734.2964477539064	-235.9903259277344	1043.210693359375	-1018.140441894531	-235.5225219726563	1027.259033203125	-801.0130004882815	-412.3447570800782	1120.109130859375	-902.069763183594	-420.7947998046876	1090.36865234375	-931.5391845703127	-423.557586669922	1089.458618164063	-872.852722167969	-292.0918273925782	778.0510864257815	-1112.317749023438	-251.2402648925782	704.4218750000001	-1122	-203.2422332763672	712.2109375000001	-1115.69970703125	-269.6504821777344	647.4577636718751	-1108.866821289063	-256.2771301269532	528.7830200195314	-1114.395141601563	-215.6642456054688	498.8515014648439	-1004.095581054688	-206.4252014160157	377.9797668457032	-1102.64208984375	-281.7641601562501	346.2600708007813	-1140.211547851563	-241.2461090087891	337.7971496582032	-1126.11865234375	-246.5015563964844	256.4699707031251	-1090.219360351563	-331.6741638183594	99.4433288574219	-1123.467407226563	-305.6845092773438	94.09889221191408	-1039.7783203125	-397.5574035644532	41.17581176757813	-1081.314819335938	-162.5015563964844	56.36156463623048	-1094.666748046875	-173.6676940917969	55.28760910034181	-1136.804077148438	-224.1219482421876	31.40634918212891	-1182.725830078125	-275.1013793945313	776.7891235351565	-705.8572998046876	-226.7948608398438	731.1635742187501	-695.8396606445314	-195.4160308837891	739.5597534179689	-701.3912963867189	-238.9749755859376	646.0380249023439	-699.0671997070314	-247.3311004638672	507.3586425781251	-711.9909057617189	-201.4117279052735	490.9042968750001	-819.8020019531252	-223.9143676757813	298.4394226074219	-709.3693847656251	-314.5205688476563	240.7279205322266	-701.3060913085939	-269.2715148925782	229.0694122314454	-698.5413208007814	-253.2626495361329	176.3875274658203	-723.4906616210939	-327.4365539550782	91.73072052001955	-699.5423583984376	-291.7692260742188	98.95545959472659	-783.0515747070315	-391.5102539062501	40.37857818603516	-749.5522460937501	-157.5122833251953	51.82833862304689	-729.8369140625001	-166.9825897216797	57.81835174560548	-684.2695922851564	-223.7385253906251	30.48571586608887	-637.0419311523439	
